<svg xmlns="http://www.w3.org/2000/svg" width="651" height="687" fill="none"><g fill="#fff" clip-path="url(#a)"><path d="M197.088 420.123c16.334 0 29.575-13.087 29.575-29.232 0-16.144-13.241-29.232-29.575-29.232-16.333 0-29.574 13.088-29.574 29.232 0 16.145 13.241 29.232 29.574 29.232zm256.229 0c16.431 0 29.75-13.166 29.75-29.406 0-16.241-13.319-29.406-29.75-29.406-16.431 0-29.751 13.165-29.751 29.406 0 16.24 13.32 29.406 29.751 29.406z"/><path fill-rule="evenodd" d="m28.357 396.633 76.841 52.983c5.574 3.828 5.076 4.872-1.497 3.132l-59.5-15.399a1.355 1.355 0 0 0-1.026-.012c-.33.13-.595.385-.735.708-.14.323-.144.688-.012 1.014.132.327.39.588.716.726l83.618 53.94c.225.165.387.4.459.667a1.2 1.2 0 0 1-.063.803 1.225 1.225 0 0 1-.557.589 1.245 1.245 0 0 1-.807.116l-72.792-18.531c-.348-.058-.706 0-1.017.166a1.575 1.575 0 0 0-.699.751 1.548 1.548 0 0 0 .484 1.867l83.002 53.592c.189.099.33.258.398.45a.821.821 0 0 1-.024.602.995.995 0 0 1-.434.474c-.197.11-.425.155-.644.127l-65.486-10.179c-6.161-.986-6.69.29-1.584 3.828a189020.319 189020.319 0 0 0 191.705 132.414c55.98 38.541 91.188 30.537 146.464-8.613a12202.419 12202.419 0 0 1 181.055-126.063.804.804 0 0 0 .487-.891.813.813 0 0 0-.221-.413.812.812 0 0 0-.572-.235.822.822 0 0 0-.31.06l-67.335 10.614c-5.985.986-6.454-.145-1.408-3.393l80.714-51.504c.296-.175.517-.451.62-.776a1.371 1.371 0 0 0-.058-.988 1.398 1.398 0 0 0-.707-.7 1.425 1.425 0 0 0-1-.059l-70.503 18.009a1.51 1.51 0 0 1-1.145.036 1.492 1.492 0 0 1-.835-.775 1.458 1.458 0 0 1-.036-1.132c.14-.367.422-.664.784-.826l84.058-54.897a1.118 1.118 0 0 0 .346-1.392 1.141 1.141 0 0 0-.547-.537 1.159 1.159 0 0 0-.767-.072l-63.726 18.183a1.698 1.698 0 0 1-1.277.09 1.667 1.667 0 0 1-1.14-1.451 1.64 1.64 0 0 1 .405-1.201c.144-.164.319-.299.516-.396l72.527-50.808a1.558 1.558 0 0 0-.277-2.77 1.602 1.602 0 0 0-1.131-.014l-41.457 12.876a2.228 2.228 0 0 1-1.452-.098 2.198 2.198 0 0 1-1.072-.973 2.153 2.153 0 0 1-.223-1.421 2.17 2.17 0 0 1 .723-1.249l58.709-46.719c2.229-1.74 1.965-3.045-.793-3.915-1.525-.464-3.11-.203-4.753.783-11.912 6.96-22.797 12.383-32.655 16.269-4.635 1.798-5.398.783-2.288-3.045l62.493-77.082a1.115 1.115 0 0 0-.147-1.42 1.152 1.152 0 0 0-1.437-.146l-1.599 1.315c-57.2 47.04-118.547 97.491-156.307 159.983-28.284 46.922-50.641 96.396-67.071 148.422a2.089 2.089 0 0 1-.83 1.156 2.136 2.136 0 0 1-2.687-.226 2.083 2.083 0 0 1-.62-1.278c-2.01-14.014-4.59-29.422-7.302-45.616-10.94-65.333-24.021-143.452-10.478-194.417 14.494-54.752 51.257-89.407 110.288-103.965 67.247-16.617 109.32-51.504 121.115-122.061 6.865-40.977-3.873-72.993-50.611-75.516-70.152-3.74-126.484 68.469-144.352 131.109-12.322 43.326-15.168 42.369-8.538-2.871l11.619-79.17a1.637 1.637 0 0 0-.292-1.086 1.67 1.67 0 0 0-.926-.651 1.695 1.695 0 0 0-1.134.085 1.67 1.67 0 0 0-.817.782l-44.185 97.44a1.313 1.313 0 0 1-.623.79 1.337 1.337 0 0 1-1.006.124 1.324 1.324 0 0 1-.799-.616 1.298 1.298 0 0 1-.125-.994l16.724-102.921a1.625 1.625 0 0 0-.286-1.035 1.619 1.619 0 0 0-.865-.634 1.466 1.466 0 0 0-1.036.065 1.428 1.428 0 0 0-.718.734l-43.393 105.879a1.69 1.69 0 0 1-.831.896 1.738 1.738 0 0 1-1.23.105 1.882 1.882 0 0 1-1.034-.736 1.876 1.876 0 0 1-.338-1.222c7.159-53.766 14.64-107.01 22.445-159.732.234-1.508-.03-2.639-.792-3.393-1.291-1.276-2.142-1.044-2.553.696l-28.518 108.75a1.817 1.817 0 0 1-.701.921 1.816 1.816 0 0 1-1.111.316 1.648 1.648 0 0 1-1.033-.428 1.58 1.58 0 0 1-.5-.983L327.446 1.392c0-.369-.148-.723-.412-.984a1.42 1.42 0 0 0-1.992 0 1.385 1.385 0 0 0-.413.984l-20.244 149.64a1.99 1.99 0 0 1-.652 1.176 2.043 2.043 0 0 1-2.554.112 2 2 0 0 1-.755-1.114A8336.573 8336.573 0 0 1 273.93 40.281c-.176-.638-.469-1.16-.88-1.566-1.056-.928-2.054-1.16-2.992-.696a.356.356 0 0 0-.228.161.37.37 0 0 0-.05.182c0 .013.001.025.003.038a.254.254 0 0 0 .011.054l21.652 168.693a1.91 1.91 0 0 1-.212 1.463 1.948 1.948 0 0 1-1.196.886 1.973 1.973 0 0 1-1.48-.209 1.936 1.936 0 0 1-.897-1.183l-40.136-103.878a1.758 1.758 0 0 0-.849-.829 1.78 1.78 0 0 0-1.188-.104c-.396.103-.744.34-.982.669-.239.329-.354.73-.326 1.134l14.347 100.137c.028.404-.087.805-.326 1.134-.238.33-.586.566-.982.669a1.78 1.78 0 0 1-1.188-.104 1.75 1.75 0 0 1-.849-.829l-42.777-99.528a1.408 1.408 0 0 0-.68-.839 1.435 1.435 0 0 0-1.08-.118 1.421 1.421 0 0 0-.849.672 1.388 1.388 0 0 0-.12 1.068l13.203 98.658a2.686 2.686 0 0 1-.381 2.042 2.747 2.747 0 0 1-1.731 1.177 2.775 2.775 0 0 1-2.066-.377 2.714 2.714 0 0 1-1.191-1.711C203.955 159.181 179.486 119.132 144.102 87 91.027 38.89-4.738 56.115 20.963 145.551c14.436 50.025 43.218 90.741 93.389 105.966 6.275 1.889 12.518 3.572 18.679 5.234 22.79 6.146 44.46 11.989 62.474 26.782 55.54 45.588 62.846 98.571 54.572 171.738a6275.578 6275.578 0 0 1-18.308 145.551c-.469 3.596-1.408 3.712-2.816.348a5382.566 5382.566 0 0 1-8.773-20.989l-.008-.019-.008-.019c-29.328-70.437-59.313-142.453-115.494-196.56A1721.183 1721.183 0 0 0 3.096 293.016c-.646-.58-1.233-.783-1.76-.609-.412.174-.705.406-.881.696-.176.348.205 1.102 1.144 2.262l58.445 72.819c3.227 4.002 2.347 5.249-2.64 3.741a129.309 129.309 0 0 1-29.399-13.485c-1.82-1.102-3.403-1.305-4.753-.609-1.936 1.044-2.024 2.233-.264 3.567l57.916 45.066c4.519 3.538 3.932 4.843-1.76 3.915-16.84-2.726-32.919-8.062-48.234-16.008-.587-.29-1.38-.232-2.377.174-1.232.638-1.29 1.334-.176 2.088zM55.9 79.954l35.735 28.797c.336.262.574.627.678 1.037a1.89 1.89 0 0 1-.103 1.229 1.92 1.92 0 0 1-.842.912 1.958 1.958 0 0 1-1.229.215l-19.54-2.871c-6.572-.986-7.188.464-1.849 4.35l18.044 13.224c2.641 1.914 2.846 4.089.617 6.525-52.724 57.768 25.789 98.658 75.256 95.352a9.862 9.862 0 0 0 4.173-1.26 9.653 9.653 0 0 0 3.191-2.926 9.404 9.404 0 0 0 1.56-3.998 9.302 9.302 0 0 0-.386-4.257c-19.188-58.551-45.946-121.191-111.52-143.115a4.004 4.004 0 0 0-2.767-.008 3.948 3.948 0 0 0-2.097 1.782 3.876 3.876 0 0 0-.405 2.705 3.91 3.91 0 0 0 1.484 2.307zm505.317 33.496 17.34-3.828a3.554 3.554 0 0 1 2.342.318 3.504 3.504 0 0 1 1.611 1.712c.321.737.374 1.561.151 2.333a3.485 3.485 0 0 1-1.375 1.901l-15.052 9.918c-3.403 2.262-3.726 4.901-.968 7.917 53.516 59.769-26.23 94.308-74.112 94.395-8.626.058-11.765-4.031-9.418-12.267 16.46-56.724 46.21-122.322 110.552-142.593a4.181 4.181 0 0 1 2.783.118 4.124 4.124 0 0 1 2.077 1.836 4.05 4.05 0 0 1 .427 2.72 4.073 4.073 0 0 1-1.414 2.373l-36.792 29.406c-4.695 3.828-4.078 5.075 1.848 3.741zM389.058 583.857c-.646-5.162-3.257-9.019-7.834-11.571-38.259-21.692-76.107-21.083-113.544 1.827a10.429 10.429 0 0 0-3.341 3.228 10.274 10.274 0 0 0-1.588 4.341c-13.555 104.052 138.366 101.007 126.307 2.175z" clip-rule="evenodd"/></g><defs><clipPath id="a"><path fill="#fff" d="M0 0h651v687H0z"/></clipPath></defs></svg>